<?xml version="1.0" encoding="utf-8"?>
<!-- Generator: Adobe Illustrator 15.0.2, SVG Export Plug-In  -->
<!DOCTYPE svg PUBLIC "-//W3C//DTD SVG 1.1//EN" "http://www.w3.org/Graphics/SVG/1.1/DTD/svg11.dtd" [
	<!ENTITY ns_flows "http://ns.adobe.com/Flows/1.0/">
]>
<svg version="1.1"
	 xmlns="http://www.w3.org/2000/svg" xmlns:xlink="http://www.w3.org/1999/xlink" xmlns:a="http://ns.adobe.com/AdobeSVGViewerExtensions/3.0/"
	 x="0px" y="0px" width="100px" height="100px" viewBox="0 0 100 100" enable-background="new 0 0 100 100" xml:space="preserve">
<defs>
</defs>
<rect id="_x3C_Slice_x3E__14_" fill-rule="evenodd" clip-rule="evenodd" fill="none" width="100" height="100"/>
<path fill="#0099FF" d="M76.924,37.772l-7.726-25.346L4.021,32.292L19.018,81.49l9.19-2.801v10.517h68.137V37.772H76.924z
	 M23.416,73.233L12.278,36.69l52.521-16.008l5.209,17.091h-41.8v34L23.416,73.233z M89.729,82.59H34.822V44.387h54.906V82.59z
	 M43.563,54.656c0-2.789,2.26-5.049,5.049-5.049c2.788,0,5.049,2.261,5.049,5.049c0,2.789-2.261,5.049-5.049,5.049
	C45.822,59.705,43.563,57.445,43.563,54.656z M69.171,54.817l-8.368,11.891l-4.55-4.688L43.419,76.604h40.117L69.171,54.817z"/>
</svg>
