<?xml version="1.0" encoding="UTF-8" standalone="no"?>
<!-- Created with Inkscape (http://www.inkscape.org/) -->
<svg xmlns:dc="http://purl.org/dc/elements/1.1/" xmlns:cc="http://web.resource.org/cc/" xmlns:rdf="http://www.w3.org/1999/02/22-rdf-syntax-ns#" xmlns:svg="http://www.w3.org/2000/svg" xmlns="http://www.w3.org/2000/svg" xmlns:sodipodi="http://inkscape.sourceforge.net/DTD/sodipodi-0.dtd" xmlns:inkscape="http://www.inkscape.org/namespaces/inkscape" width="540.28000pt" height="239.89000pt" id="svg2" sodipodi:version="0.32" inkscape:version="0.41" sodipodi:docbase="/data3/Josep/vidaartificial.com/Wikipedia/Grafics" sodipodi:docname="Computer.Science.AI.Neuron.svg">
  <defs id="defs4">
    <marker inkscape:stockid="Arrow2Mend" orient="auto" refY="0.0" refX="0.0" id="Arrow2Mend" style="overflow:visible;">
      <path sodipodi:nodetypes="cccc" id="path3642" style="font-size:12.0;fill-rule:evenodd;stroke-width:0.62500000;stroke-linejoin:round;" d="M 8.7185878,4.0337352 L -2.2072895,0.016013256 L 8.7185884,-4.0017078 C 6.9730900,-1.6296469 6.9831476,1.6157441 8.7185878,4.0337352 z " transform="scale(0.6) rotate(180) translate(-5,0)"/>
    </marker>
  </defs>
  <sodipodi:namedview id="base" pagecolor="#ffffff" bordercolor="#666666" borderopacity="1.0" inkscape:pageopacity="0.0" inkscape:pageshadow="2" inkscape:zoom="1.0000000" inkscape:cx="355.71930" inkscape:cy="114.91040" inkscape:document-units="px" inkscape:current-layer="layer1" showguides="true" inkscape:guide-bbox="true" inkscape:window-width="1273" inkscape:window-height="942" inkscape:window-x="0" inkscape:window-y="0"/>
  <metadata id="metadata7">
    <rdf:RDF id="RDF14">
      <cc:Work rdf:about="" id="Work16">
        <dc:format id="format18">image/svg+xml</dc:format>
        <dc:type rdf:resource="http://purl.org/dc/dcmitype/StillImage" id="type20"/>
        <dc:title id="title1330">Computer Science Neuron</dc:title>
        <dc:creator id="creator1332">
          <cc:Agent id="Agent1334">
            <dc:title id="title1336">Year of the Dragon</dc:title>
          </cc:Agent>
        </dc:creator>
        <cc:license rdf:resource="http://creativecommons.org/licenses/by/2.0/" id="license1338"/>
      </cc:Work>
      <cc:License id="License1340" rdf:about="http://creativecommons.org/licenses/by/2.0/">
        <cc:permits id="permits1342" rdf:resource="http://web.resource.org/cc/Reproduction"/>
        <cc:permits id="permits1344" rdf:resource="http://web.resource.org/cc/Distribution"/>
        <cc:requires id="requires1346" rdf:resource="http://web.resource.org/cc/Notice"/>
        <cc:requires id="requires1348" rdf:resource="http://web.resource.org/cc/Attribution"/>
        <cc:permits id="permits1350" rdf:resource="http://web.resource.org/cc/DerivativeWorks"/>
        <cc:requires id="requires1352" rdf:resource="http://web.resource.org/cc/ShareAlike"/>
      </cc:License>
    </rdf:RDF>
  </metadata>
  <g inkscape:label="Layer 1" inkscape:groupmode="layer" id="layer1">
    <g id="g12556">
      <path style="fill:none;fill-opacity:0.75000000;fill-rule:evenodd;stroke:#000000;stroke-width:3.7549107;stroke-linecap:butt;stroke-linejoin:miter;marker-start:none;marker-end:url(#Arrow2Mend);stroke-miterlimit:4.0000000;stroke-dasharray:none;stroke-opacity:1.0000000" d="M 73.975065,179.85618 L 162.83220,156.04697" id="path8339"/>
      <path id="path8341" d="M 226.23933,139.05710 L 315.09646,115.24791" style="fill:none;fill-opacity:0.75000000;fill-rule:evenodd;stroke:#000000;stroke-width:3.7549107;stroke-linecap:butt;stroke-linejoin:miter;marker-start:none;marker-end:url(#Arrow2Mend);stroke-miterlimit:4.0000000;stroke-dasharray:none;stroke-opacity:1.0000000"/>
      <path d="M 198.52216 297.97794 A 55.302605 55.302605 0 1 1  87.916954,297.97794 A 55.302605 55.302605 0 1 1  198.52216 297.97794 z" sodipodi:ry="55.302605" sodipodi:rx="55.302605" sodipodi:cy="297.97794" sodipodi:cx="143.21956" id="path8345" style="fill:#c8ffff;fill-opacity:1.0000000;stroke:#000000;stroke-width:10.000000;stroke-linecap:butt;stroke-linejoin:miter;stroke-miterlimit:4.0000000;stroke-dasharray:none;stroke-dashoffset:0.00000000;stroke-opacity:1.0000000" sodipodi:type="arc" transform="matrix(0.375491,0.000000,0.000000,0.375491,147.6318,33.82217)"/>
      <g transform="matrix(1.387219,0.000000,0.000000,1.387219,-77.98958,-84.16613)" id="g10988">
        <path id="path8347" d="M 191.68255,156.67542 L 194.48366,156.67542 L 196.44217,164.91177 L 198.38549,156.67542 L 201.20179,156.67542 L 203.14511,164.91177 L 205.10361,156.67542 L 207.88195,156.67542 L 205.20988,168.00894 L 201.83944,168.00894 L 199.78225,159.39304 L 197.74783,168.00894 L 194.37739,168.00894 L 191.68255,156.67542" style="font-size:41.403313px;font-style:normal;font-variant:normal;font-weight:bold;font-stretch:normal;text-align:start;line-height:125.00000%;writing-mode:lr-tb;text-anchor:start;fill:#000000;fill-opacity:1.0000000;stroke:none;stroke-width:1.0000000px;stroke-linecap:butt;stroke-linejoin:miter;stroke-opacity:1.0000000;font-family:Bitstream Vera Sans"/>
        <path id="path8349" d="M 208.36563,173.55149 L 211.13638,173.55149 L 211.13638,174.74498 L 206.56064,174.74498 L 206.56064,173.55149 L 208.85905,171.52298 C 209.06429,171.33742 209.21611,171.15608 209.31452,170.97895 C 209.41292,170.80183 209.46212,170.61768 209.46213,170.42649 C 209.46212,170.13128 209.36231,169.89371 209.16270,169.71377 C 208.96589,169.53384 208.70301,169.44387 208.37407,169.44386 C 208.12103,169.44387 207.84409,169.49869 207.54326,169.60834 C 207.24243,169.71518 206.92051,169.87544 206.57751,170.08911 L 206.57751,168.70584 C 206.94300,168.58495 207.30428,168.49358 207.66135,168.43172 C 208.01841,168.36706 208.36844,168.33473 208.71145,168.33472 C 209.46493,168.33473 210.04973,168.50060 210.46584,168.83236 C 210.88475,169.16412 211.09420,169.62662 211.09421,170.21984 C 211.09420,170.56285 211.00564,170.88337 210.82852,171.18138 C 210.65139,171.47660 210.27887,171.87302 209.71094,172.37066 L 208.36563,173.55149" style="font-size:23.001841px;font-style:normal;font-variant:normal;font-weight:bold;font-stretch:normal;text-align:start;line-height:125.00000%;writing-mode:lr-tb;text-anchor:start;fill:#000000;fill-opacity:1.0000000;stroke:none;stroke-width:1.0000000px;stroke-linecap:butt;stroke-linejoin:miter;stroke-opacity:1.0000000;font-family:Bitstream Vera Sans"/>
      </g>
      <path style="font-size:72.000000px;font-style:normal;font-variant:normal;font-weight:bold;font-stretch:normal;text-align:start;line-height:125.00000%;writing-mode:lr-tb;text-anchor:start;fill:#000000;fill-opacity:1.0000000;stroke:none;stroke-width:1.0000000px;stroke-linecap:butt;stroke-linejoin:miter;stroke-opacity:1.0000000;font-family:Bitstream Vera Sans" d="M 63.411228,182.35322 L 70.249268,192.41227 L 64.955727,192.41227 L 60.348629,185.67983 L 55.781130,192.41227 L 50.461185,192.41227 L 57.299229,182.35322 L 50.725204,172.70339 L 56.031947,172.70339 L 60.348629,179.05300 L 64.652105,172.70339 L 69.985253,172.70339 L 63.411228,182.35322" id="path8370"/>
      <path style="font-size:40.000000px;font-style:normal;font-variant:normal;font-weight:bold;font-stretch:normal;text-align:start;line-height:125.00000%;writing-mode:lr-tb;text-anchor:start;fill:#000000;fill-opacity:1.0000000;stroke:none;stroke-width:1.0000000px;stroke-linecap:butt;stroke-linejoin:miter;stroke-opacity:1.0000000;font-family:Bitstream Vera Sans" d="M 74.506484,202.05075 L 79.324795,202.05075 L 79.324795,204.12622 L 71.367612,204.12622 L 71.367612,202.05075 L 75.364537,198.52319 C 75.721445,198.20051 75.985460,197.88516 76.156590,197.57713 C 76.327705,197.26911 76.413264,196.94887 76.413272,196.61640 C 76.413264,196.10304 76.239698,195.68990 75.892571,195.37698 C 75.550322,195.06408 75.093181,194.90763 74.521150,194.90762 C 74.081116,194.90763 73.599530,195.00297 73.076389,195.19364 C 72.553243,195.37944 71.993428,195.65812 71.396949,196.02969 L 71.396949,193.62420 C 72.032542,193.41398 72.660803,193.25508 73.281737,193.14751 C 73.902660,193.03507 74.511365,192.97884 75.107855,192.97883 C 76.418153,192.97884 77.435111,193.26730 78.158719,193.84422 C 78.887202,194.42115 79.251447,195.22543 79.251455,196.25704 C 79.251447,196.85353 79.097436,197.41090 78.789428,197.92915 C 78.481398,198.44252 77.833578,199.13190 76.845965,199.99728 L 74.506484,202.05075" id="path8372"/>
      <path sodipodi:type="arc" style="fill:#c8ffff;fill-opacity:1.0000000;stroke:#000000;stroke-width:10.000000;stroke-linecap:butt;stroke-linejoin:miter;stroke-miterlimit:4.0000000;stroke-dasharray:none;stroke-dashoffset:0.00000000;stroke-opacity:1.0000000" id="path8451" sodipodi:cx="143.21956" sodipodi:cy="297.97794" sodipodi:rx="55.302605" sodipodi:ry="55.302605" d="M 198.52216 297.97794 A 55.302605 55.302605 0 1 1  87.916954,297.97794 A 55.302605 55.302605 0 1 1  198.52216 297.97794 z" transform="matrix(0.375491,0.000000,0.000000,0.375491,147.6318,-43.26972)"/>
      <g transform="matrix(1.387219,0.000000,0.000000,1.387219,-77.98957,-54.31466)" id="g10984">
        <path id="path8453" d="M 192.15958,80.094972 L 194.80213,80.094972 L 196.64976,87.865045 L 198.48307,80.094972 L 201.13993,80.094972 L 202.97324,87.865045 L 204.82086,80.094972 L 207.44192,80.094972 L 204.92112,90.786879 L 201.74148,90.786879 L 199.80075,82.658738 L 197.88151,90.786879 L 194.70187,90.786879 L 192.15958,80.094972" style="font-size:39.059425px;font-style:normal;font-variant:normal;font-weight:bold;font-stretch:normal;text-align:start;line-height:125.00000%;writing-mode:lr-tb;text-anchor:start;fill:#000000;fill-opacity:1.0000000;stroke:none;stroke-width:1.0000000px;stroke-linecap:butt;stroke-linejoin:miter;stroke-opacity:1.0000000;font-family:Bitstream Vera Sans"/>
        <path id="path8455" d="M 206.50574,96.083311 L 207.85844,96.083311 L 207.85844,92.244028 L 206.46993,92.530483 L 206.46993,91.488108 L 207.85048,91.201654 L 209.30662,91.201654 L 209.30662,96.083311 L 210.65933,96.083311 L 210.65933,97.141602 L 206.50574,97.141602 L 206.50574,96.083311" style="font-size:21.699680px;font-style:normal;font-variant:normal;font-weight:bold;font-stretch:normal;text-align:start;line-height:125.00000%;writing-mode:lr-tb;text-anchor:start;fill:#000000;fill-opacity:1.0000000;stroke:none;stroke-width:1.0000000px;stroke-linecap:butt;stroke-linejoin:miter;stroke-opacity:1.0000000;font-family:Bitstream Vera Sans"/>
      </g>
      <path style="font-size:72.000000px;font-style:normal;font-variant:normal;font-weight:bold;font-stretch:normal;text-align:start;line-height:125.00000%;writing-mode:lr-tb;text-anchor:start;fill:#000000;fill-opacity:1.0000000;stroke:none;stroke-width:1.0000000px;stroke-linecap:butt;stroke-linejoin:miter;stroke-opacity:1.0000000;font-family:Bitstream Vera Sans" d="M 63.411263,32.991287 L 70.249307,43.050339 L 64.955762,43.050339 L 60.348664,36.317903 L 55.781169,43.050339 L 50.461224,43.050339 L 57.299264,32.991287 L 50.725239,23.341462 L 56.031982,23.341462 L 60.348664,29.691074 L 64.652144,23.341462 L 69.985288,23.341462 L 63.411263,32.991287" id="path8442"/>
      <path style="font-size:40.000000px;font-style:normal;font-variant:normal;font-weight:bold;font-stretch:normal;text-align:start;line-height:125.00000%;writing-mode:lr-tb;text-anchor:start;fill:#000000;fill-opacity:1.0000000;stroke:none;stroke-width:1.0000000px;stroke-linecap:butt;stroke-linejoin:miter;stroke-opacity:1.0000000;font-family:Bitstream Vera Sans" d="M 71.939681,52.813496 L 74.433174,52.813496 L 74.433174,45.736369 L 71.873673,46.264403 L 71.873673,44.342944 L 74.418507,43.814910 L 77.102682,43.814910 L 77.102682,52.813496 L 79.596175,52.813496 L 79.596175,54.764288 L 71.939681,54.764288 L 71.939681,52.813496" id="path8444"/>
      <path id="path8413" d="M 73.975065,34.472162 L 162.83220,58.281370" style="fill:none;fill-opacity:0.75000000;fill-rule:evenodd;stroke:#000000;stroke-width:3.7549107;stroke-linecap:butt;stroke-linejoin:miter;marker-start:none;marker-end:url(#Arrow2Mend);stroke-miterlimit:4.0000000;stroke-dasharray:none;stroke-opacity:1.0000000"/>
      <path style="fill:none;fill-opacity:0.75000000;fill-rule:evenodd;stroke:#000000;stroke-width:3.7549107;stroke-linecap:butt;stroke-linejoin:miter;marker-start:none;marker-end:url(#Arrow2Mend);stroke-miterlimit:4.0000000;stroke-dasharray:none;stroke-opacity:1.0000000" d="M 226.23933,75.271249 L 315.09646,99.080420" id="path8415"/>
      <path sodipodi:type="arc" style="fill:#ffffc8;fill-opacity:1.0000000;stroke:#000000;stroke-width:10.000000;stroke-linecap:butt;stroke-linejoin:miter;stroke-miterlimit:4.0000000;stroke-dasharray:none;stroke-dashoffset:0.00000000;stroke-opacity:1.0000000" id="path8461" sodipodi:cx="334.65164" sodipodi:cy="387.31293" sodipodi:rx="100.67910" sodipodi:ry="100.67910" d="M 435.33074 387.31293 A 100.67910 100.67910 0 1 1  233.97254,387.31293 A 100.67910 100.67910 0 1 1  435.33074 387.31293 z" transform="matrix(0.375491,0.000000,0.000000,0.375491,247.3627,-31.69860)"/>
      <path style="fill:none;fill-opacity:0.75000000;fill-rule:evenodd;stroke:#000000;stroke-width:2.9912851;stroke-linecap:butt;stroke-linejoin:miter;stroke-miterlimit:4.0000000;stroke-dasharray:none;stroke-opacity:1.0000000" d="M 389.65016,87.146890 L 357.10826,87.146890 L 372.73245,114.20877" id="path8465" sodipodi:nodetypes="ccc"/>
      <path id="path8467" d="M 389.83125,140.22446 L 357.10826,140.22446 L 372.73245,113.16258" style="fill:none;fill-opacity:0.75000000;fill-rule:evenodd;stroke:#000000;stroke-width:2.9912851;stroke-linecap:butt;stroke-linejoin:miter;stroke-miterlimit:4.0000000;stroke-dasharray:none;stroke-opacity:1.0000000" sodipodi:nodetypes="ccc"/>
      <path style="fill:none;fill-opacity:0.75000000;fill-rule:evenodd;stroke:#000000;stroke-width:2.9912851;stroke-linecap:butt;stroke-linejoin:miter;stroke-miterlimit:4.0000000;stroke-dasharray:none;stroke-opacity:1.0000000" d="M 388.74471,86.287410 L 388.74471,94.205230" id="path8469"/>
      <path style="fill:none;fill-opacity:0.75000000;fill-rule:evenodd;stroke:#000000;stroke-width:2.9912851;stroke-linecap:butt;stroke-linejoin:miter;stroke-miterlimit:4.0000000;stroke-dasharray:none;stroke-opacity:1.0000000" d="M 389.02749,133.25105 L 389.02749,141.16887" id="path8471"/>
      <path style="fill:none;fill-opacity:0.75000000;fill-rule:evenodd;stroke:#000000;stroke-width:2.9912851;stroke-linecap:butt;stroke-linejoin:miter;stroke-miterlimit:4.0000000;stroke-dasharray:none;stroke-opacity:1.0000000" d="M 358.46087,86.820930 L 372.54492,111.21522 L 355.91145,140.02524" id="path8473"/>
      <rect style="fill:#ffffc8;fill-opacity:1.0000000;stroke:#000000;stroke-width:3.7549100;stroke-linecap:butt;stroke-linejoin:miter;stroke-miterlimit:4.0000000;stroke-dasharray:none;stroke-dashoffset:0.00000000;stroke-opacity:1.0000000" id="rect8457" width="65.014023" height="76.140640" x="488.34671" y="75.663506"/>
      <path id="path9269" d="M 503.82129,141.22906 L 521.34037,141.22906 L 521.34037,86.238630 L 537.88616,86.238630" style="fill:none;fill-opacity:0.75000000;fill-rule:evenodd;stroke:#000000;stroke-width:5.6323652;stroke-linecap:butt;stroke-linejoin:miter;stroke-miterlimit:4.0000000;stroke-dasharray:none;stroke-opacity:1.0000000"/>
      <path sodipodi:nodetypes="cc" style="fill:none;fill-opacity:0.75000000;fill-rule:evenodd;stroke:#000000;stroke-width:3.7549100;stroke-linecap:butt;stroke-linejoin:miter;marker-start:none;marker-end:url(#Arrow2Mend);stroke-miterlimit:4.0000000;stroke-dasharray:none;stroke-opacity:1.0000000" d="M 416.60577,113.73381 L 467.71958,113.73381" id="path10027"/>
      <path id="path10029" d="M 563.08471,113.73381 L 614.19853,113.73381" style="fill:none;fill-opacity:0.75000000;fill-rule:evenodd;stroke:#000000;stroke-width:3.7549100;stroke-linecap:butt;stroke-linejoin:miter;marker-start:none;marker-end:url(#Arrow2Mend);stroke-miterlimit:4.0000000;stroke-dasharray:none;stroke-opacity:1.0000000" sodipodi:nodetypes="cc"/>
      <path id="text10031" d="M 634.43479,103.16768 L 639.99236,103.16768 L 644.48064,110.19053 L 648.96892,103.16768 L 654.53971,103.16768 L 647.02839,114.57322 L 647.02839,122.87657 L 641.94608,122.87657 L 641.94608,114.57322 L 634.43479,103.16768" style="font-size:72.000000px;font-style:normal;font-variant:normal;font-weight:bold;font-stretch:normal;text-align:start;line-height:125.00000%;writing-mode:lr-tb;text-anchor:start;fill:#000000;fill-opacity:1.0000000;stroke:none;stroke-width:1.0000000px;stroke-linecap:butt;stroke-linejoin:miter;stroke-opacity:1.0000000;font-family:Bitstream Vera Sans"/>
      <rect y="213.83969" x="497.35040" height="55.051579" width="47.006756" id="rect10040" style="fill:#ffffc8;fill-opacity:1.0000000;stroke:#000000;stroke-width:3.7549100;stroke-linecap:butt;stroke-linejoin:miter;stroke-miterlimit:4.0000000;stroke-dasharray:none;stroke-dashoffset:0.00000000;stroke-opacity:1.0000000"/>
      <path id="text10807" d="M 525.88711,240.08203 C 525.88709,238.53313 525.53507,237.35386 524.83104,236.54419 C 524.13578,235.73456 523.12371,235.32974 521.79484,235.32970 C 520.03472,235.32974 518.55622,236.12180 517.35936,237.70588 C 516.17127,239.28118 515.57724,241.25690 515.57724,243.63305 C 515.57724,245.14676 515.92486,246.32164 516.62011,247.15767 C 517.31535,247.99374 518.28341,248.41177 519.52430,248.41177 C 520.53635,248.41177 521.43401,248.20056 522.21727,247.77813 C 523.00931,247.34692 523.68255,246.71328 524.23700,245.87721 C 524.76502,245.07636 525.16985,244.17432 525.45148,243.17104 C 525.74188,242.16777 525.88709,241.13810 525.88711,240.08203 M 522.53409,231.64670 C 525.15665,231.64670 527.26438,232.37714 528.85730,233.83803 C 530.45898,235.29013 531.25983,237.19105 531.25986,239.54080 C 531.25983,241.14249 531.01342,242.65621 530.52061,244.08187 C 530.03656,245.50757 529.32811,246.78807 528.39527,247.92333 C 527.25118,249.32264 525.89589,250.36988 524.32941,251.06514 C 522.77170,251.75158 520.97198,252.09481 518.93026,252.09481 C 516.31648,252.09481 514.21315,251.36876 512.62025,249.91666 C 511.02734,248.46457 510.23089,246.55925 510.23089,244.20068 C 510.23089,242.59020 510.47291,241.07209 510.95694,239.64638 C 511.44097,238.22072 512.15382,236.93583 513.09548,235.79174 C 514.22195,234.40126 515.56403,233.36281 517.12174,232.67633 C 518.68823,231.98994 520.49235,231.64670 522.53409,231.64670" style="font-size:72.000000px;font-style:oblique;font-variant:normal;font-weight:bold;font-stretch:normal;text-align:start;line-height:125.00000%;writing-mode:lr-tb;text-anchor:start;fill:#000000;fill-opacity:1.0000000;stroke:none;stroke-width:1.0000000px;stroke-linecap:butt;stroke-linejoin:miter;stroke-opacity:1.0000000;font-family:Bitstream Vera Sans"/>
      <path style="fill:none;fill-opacity:0.75000000;fill-rule:evenodd;stroke:#000000;stroke-width:3.7549100;stroke-linecap:butt;stroke-linejoin:miter;stroke-miterlimit:4.0000000;stroke-dasharray:none;stroke-opacity:1.0000000" d="M 512.39385,241.87072 L 529.59920,241.87072" id="path10811"/>
      <path sodipodi:nodetypes="cc" style="fill:none;fill-opacity:0.75000000;fill-rule:evenodd;stroke:#000000;stroke-width:3.7549100;stroke-linecap:butt;stroke-linejoin:miter;marker-start:none;marker-end:url(#Arrow2Mend);stroke-miterlimit:4.0000000;stroke-dasharray:none;stroke-opacity:1.0000000" d="M 520.85376,206.73572 L 520.85376,172.13903" id="path10828"/>
    </g>
  </g>
</svg>